<?xml version="1.0" encoding="utf-8"?>
<!-- Generator: Adobe Illustrator 26.0.3, SVG Export Plug-In . SVG Version: 6.00 Build 0)  -->
<svg version="1.1" id="BLOK_LOGO" xmlns="http://www.w3.org/2000/svg" xmlns:xlink="http://www.w3.org/1999/xlink" x="0px" y="0px"
	 viewBox="0 0 115 35.407" style="enable-background:new 0 0 115 35.407;" xml:space="preserve">
<style type="text/css">
	.st0{fill:#212121;}
</style>
<g>
	<polygon class="st0" points="3.994,12.556 3.205,12.556 3.205,0.904 0,0.904 0,0.164 7.199,0.164 7.199,0.904 3.994,0.904 	"/>
	<polygon class="st0" points="16.288,5.423 16.288,0.164 17.077,0.164 17.077,12.556 16.288,12.556 16.288,6.163 8.761,6.163 
		8.761,12.556 7.972,12.556 7.972,0.164 8.761,0.164 8.761,5.423 	"/>
	<polygon class="st0" points="19.213,0.904 19.213,5.407 24.21,5.407 24.21,6.147 19.213,6.147 19.213,11.817 24.341,11.817 
		24.341,12.556 18.424,12.556 18.424,0.164 24.341,0.164 24.341,0.904 	"/>
	<path class="st0" d="M33.87,5.982c0.986-0.559,1.43-1.397,1.43-2.531c0-0.986-0.279-1.907-1.035-2.564
		c-0.74-0.657-1.627-0.723-2.564-0.723h-2.482v12.392h3.172c1.101,0,2.021-0.148,2.893-0.888c0.772-0.657,1.151-1.561,1.151-2.564
		C36.434,7.527,35.399,6.295,33.87,5.982z M30.008,0.904h1.364c0.723,0,1.496,0,2.12,0.394c0.707,0.444,1.019,1.233,1.019,2.038
		c0,0.855-0.214,1.479-0.92,1.989c-0.707,0.51-1.381,0.46-2.219,0.46h-1.364V0.904z M34.429,11.34
		c-0.756,0.509-1.66,0.477-2.531,0.477h-1.89V6.525h1.742c0.822,0,1.857,0.016,2.613,0.395c0.838,0.411,1.282,1.315,1.282,2.219
		C35.645,10.058,35.185,10.831,34.429,11.34z"/>
	<path class="st0" d="M43.125,0c-3.501,0-6.426,2.876-6.426,6.36c0,3.484,2.942,6.36,6.426,6.36c3.484,0,6.426-2.876,6.426-6.36
		C49.55,2.876,46.609,0,43.125,0z M43.125,11.981c-3.09,0-5.637-2.564-5.637-5.621c0-3.057,2.548-5.621,5.637-5.621
		c3.073,0,5.637,2.564,5.637,5.621C48.762,9.401,46.198,11.981,43.125,11.981z"/>
	<polygon class="st0" points="51.095,11.817 56.011,11.817 56.011,12.556 50.306,12.556 50.306,0.164 51.095,0.164 	"/>
	<path class="st0" d="M56.995,0.164h2.235c1.808,0,3.238,0.296,4.602,1.561c1.298,1.216,1.972,2.876,1.972,4.651
		c0,1.709-0.658,3.336-1.907,4.536c-1.364,1.315-2.827,1.644-4.668,1.644h-2.235V0.164z M59.214,11.817
		c1.627,0,2.975-0.329,4.158-1.496c1.052-1.052,1.644-2.465,1.644-3.944c0-1.578-0.625-3.057-1.791-4.125
		c-1.183-1.068-2.466-1.347-4.01-1.347h-1.43v10.913H59.214z"/>
	<polygon class="st0" points="71.62,11.817 76.458,11.817 76.458,12.556 70.831,12.556 70.831,0.164 71.62,0.164 	"/>
	<path class="st0" d="M87.694,6.36c0,3.484-2.942,6.36-6.426,6.36c-3.485,0-6.427-2.876-6.427-6.36c0-3.484,2.926-6.36,6.427-6.36
		C84.752,0,87.694,2.876,87.694,6.36z M75.63,6.36c0,3.057,2.548,5.621,5.638,5.621c3.073,0,5.637-2.58,5.637-5.621
		c0-3.057-2.564-5.621-5.637-5.621C78.178,0.74,75.63,3.303,75.63,6.36z"/>
	<path class="st0" d="M101.236,6.36c0,3.484-2.942,6.36-6.426,6.36s-6.426-2.876-6.426-6.36c0-3.484,2.925-6.36,6.426-6.36
		C98.294,0,101.236,2.876,101.236,6.36z M89.172,6.36c0,3.057,2.547,5.621,5.638,5.621c3.073,0,5.637-2.58,5.637-5.621
		c0-3.057-2.564-5.621-5.637-5.621C91.719,0.74,89.172,3.303,89.172,6.36z"/>
	<polygon class="st0" points="108.631,0.164 109.682,0.164 103.618,6.13 110.06,12.556 109.025,12.556 103.076,6.64 102.747,6.968 
		102.747,12.556 101.958,12.556 101.958,0.164 102.747,0.164 102.747,5.949 	"/>
	<path class="st0" d="M13.016,22.12c0,3.484-2.942,6.36-6.426,6.36s-6.426-2.876-6.426-6.36c0-3.484,2.925-6.36,6.426-6.36
		C10.075,15.76,13.016,18.636,13.016,22.12z M0.953,22.12c0,3.057,2.547,5.621,5.637,5.621c3.074,0,5.637-2.58,5.637-5.621
		c0-3.057-2.564-5.621-5.637-5.621C3.501,16.499,0.953,19.063,0.953,22.12z"/>
	<polygon class="st0" points="14.544,16.664 14.544,21.166 18.637,21.166 18.637,21.906 14.544,21.906 14.544,28.316 13.755,28.316 
		13.755,15.924 18.752,15.924 18.752,16.664 	"/>
	<polygon class="st0" points="72.706,34.49 72.706,15.929 77.778,15.929 77.778,29.746 83.472,29.746 83.472,34.49 	"/>
	<polygon class="st0" points="56.178,34.49 56.178,15.929 61.25,15.929 61.25,22.438 66.365,22.438 66.365,15.929 71.437,15.929 
		71.437,34.49 66.365,34.49 66.365,27.585 61.25,27.585 61.25,34.49 	"/>
	<polygon class="st0" points="38.943,15.932 31.613,24.771 39.988,34.496 33.274,34.493 27.586,27.872 27.575,27.872 27.575,34.49 
		22.502,34.49 22.502,15.929 27.575,15.929 27.575,21.489 27.535,21.493 32.366,15.932 	"/>
	<path class="st0" d="M36.195,25.055c0-5.34,4.285-9.67,9.57-9.67c5.285,0,9.57,4.329,9.57,9.67c0,5.34-4.285,9.67-9.57,9.67
		C40.48,34.725,36.195,30.396,36.195,25.055z M45.765,29.812c2.379,0,4.308-2.131,4.308-4.76c0-2.63-1.929-4.761-4.308-4.761
		c-2.379,0-4.308,2.131-4.308,4.761C41.457,27.681,43.386,29.812,45.765,29.812z"/>
	<polygon class="st0" points="89.6,15.929 94.812,15.929 94.812,20.206 89.719,20.216 89.701,23.146 94.406,23.146 94.406,27.301 
		89.707,27.301 89.711,30.134 94.856,30.134 94.856,34.49 89.644,34.49 84.515,34.49 84.515,15.929 	"/>
	<path class="st0" d="M105.358,27.073l5.278,7.427l-5.538-0.01l-4.136-5.698v5.687h-4.97V15.923h6.359
		C107.944,15.923,111.495,22.942,105.358,27.073z M102.38,23.805c0.987,0,1.787-0.8,1.787-1.788c0-0.987-0.8-1.787-1.787-1.787
		h-1.437v3.571L102.38,23.805z"/>
	<path class="st0" d="M111.269,33.55c0-1.033,0.823-1.856,1.865-1.856c1.043,0,1.866,0.823,1.866,1.856
		c0,1.033-0.823,1.856-1.866,1.856C112.092,35.407,111.269,34.583,111.269,33.55z M114.714,33.55c0-0.876-0.728-1.57-1.58-1.57
		c-0.852,0-1.58,0.695-1.58,1.57c0,0.876,0.728,1.571,1.58,1.571C113.986,35.121,114.714,34.426,114.714,33.55z M114.02,34.555
		h-0.343l-0.609-0.938h-0.342v0.938h-0.286v-2.033h0.885c0.366,0,0.723,0.1,0.723,0.538c0,0.4-0.281,0.547-0.643,0.557
		L114.02,34.555z M113.068,33.331c0.252,0,0.695,0.048,0.695-0.276c0-0.209-0.276-0.247-0.495-0.247h-0.542v0.523H113.068z"/>
</g>
</svg>
